<svg aria-hidden="true" style="position: absolute; width: 0; height: 0; overflow: hidden;" version="1.1" xmlns="http://www.w3.org/2000/svg" xmlns:xlink="http://www.w3.org/1999/xlink">
<defs>
<symbol id="icon-chat" viewBox="0 0 32 32">
<path fill="#fff" style="fill: var(--color1, #fff)" d="M15.934 0.066c-8.762 0-15.868 7.106-15.868 15.868s7.106 15.868 15.868 15.868c8.762 0 15.868-7.106 15.868-15.868s-7.106-15.868-15.868-15.868zM15.934 31.167c-8.4 0-15.233-6.833-15.233-15.233s6.833-15.233 15.233-15.233c8.4 0 15.233 6.833 15.233 15.233s-6.833 15.233-15.233 15.233zM9.587 10.539c-1.228 0-2.221 0.993-2.221 2.222s0.993 2.221 2.221 2.221c1.228 0 2.222-0.993 2.222-2.221s-0.993-2.221-2.221-2.221zM9.587 14.664c-1.050 0-1.904-0.854-1.904-1.904s0.854-1.904 1.904-1.904c1.050 0 1.904 0.854 1.904 1.904s-0.854 1.904-1.904 1.904zM18.155 11.015h-5.078v0.317h5.078v-0.317zM18.155 12.602h-5.078v0.317h5.078v-0.317zM25.137 13.712h-4.76v-3.808c0-0.876-0.711-1.587-1.587-1.587h-11.425c-0.876 0-1.587 0.711-1.587 1.587v5.712c0 0.876 0.711 1.587 1.587 1.587h0.317v2.602l2.977-2.602h1.466v3.808c0 0.876 0.711 1.587 1.587 1.587h8.131l2.977 2.602v-2.602h0.317c0.876 0 1.587-0.711 1.587-1.587v-5.712c0-0.876-0.711-1.587-1.587-1.587zM12.126 15.299v1.269h-1.707l-2.101 1.841v-1.841h-0.952c-0.524 0-0.952-0.428-0.952-0.952v-5.712c0-0.524 0.428-0.952 0.952-0.952h11.425c0.524 0 0.952 0.428 0.952 0.952v3.808h-6.030c-0.876 0-1.587 0.711-1.587 1.587zM26.089 21.012c0 0.524-0.428 0.952-0.952 0.952h-0.952v1.841l-2.101-1.841h-8.372c-0.524 0-0.952-0.428-0.952-0.952v-5.712c0-0.524 0.428-0.952 0.952-0.952h11.425c0.524 0 0.952 0.428 0.952 0.952v5.712zM22.916 15.934c-1.228 0-2.221 0.993-2.221 2.221s0.993 2.221 2.221 2.221c1.228 0 2.221-0.993 2.221-2.221s-0.993-2.221-2.221-2.221zM22.916 20.059c-1.050 0-1.904-0.854-1.904-1.904s0.854-1.904 1.904-1.904c1.050 0 1.904 0.854 1.904 1.904s-0.854 1.904-1.904 1.904zM14.347 16.727h5.078v-0.317h-5.078v0.317zM14.347 18.314h5.078v-0.317h-5.078v0.317zM14.347 19.901h3.174v-0.317h-3.174v0.317z"></path>
</symbol>
<symbol id="icon-book" viewBox="0 0 32 32">
<path fill="#fff" style="fill: var(--color1, #fff)" d="M25.031 12.208l-2.936 2.939v-9.051h-13.964v19.676h13.964v-5.24l5.63-5.63-2.694-2.694zM21.461 25.137h-12.694v-18.407h12.694v9.051l-2.691 2.691h-8.099v0.317h7.782l-1.587 1.587h-6.195v0.317h5.966l-0.365 1.587h-5.601v0.317h5.528l-0.343 1.479 3.5-0.806 2.104-2.104v3.97zM17.177 21.183l1.574 1.574-2.047 0.473 0.473-2.047zM19.084 22.643l-1.796-1.796 6.395-6.395 1.123 1.123-6.395 6.395 0.225 0.225 6.395-6.395 0.447 0.447-6.395 6.395zM23.911 14.23l1.123-1.123 1.796 1.796-1.123 1.123-1.796-1.796zM16.066 0.066c-8.762 0-15.868 7.106-15.868 15.868s7.106 15.868 15.868 15.868c8.762 0 15.868-7.106 15.868-15.868s-7.106-15.868-15.868-15.868zM16.066 31.167c-8.4 0-15.233-6.833-15.233-15.233s6.833-15.233 15.233-15.233c8.4 0 15.233 6.833 15.233 15.233s-6.833 15.233-15.233 15.233zM19.557 16.569h-8.886v0.317h8.886v-0.317zM16.383 8.635h-5.712v5.712h5.712v-5.712zM16.066 14.030h-5.078v-5.078h5.078v5.078z"></path>
</symbol>
<symbol id="icon-trade" viewBox="0 0 32 32">
<path fill="#fff" style="fill: var(--color1, #fff)" d="M15.953 0.066c-0.006 0-0.013 0-0.019 0-8.756 0-15.855 7.090-15.868 15.849-0.013 8.762 7.083 15.874 15.849 15.887 0.006 0 0.013 0 0.019 0 8.753 0 15.855-7.090 15.868-15.849 0.013-8.762-7.083-15.874-15.849-15.887zM15.934 31.167h-0.019c-8.4-0.010-15.224-6.852-15.214-15.252 0.010-8.388 6.845-15.214 15.233-15.214h0.019c8.4 0.010 15.224 6.852 15.214 15.252-0.010 8.388-6.845 15.214-15.233 15.214zM25.772 22.281v-10.815h0.635v-3.808h-20.945v3.808h0.635v10.815h-1.587v0.635h3.491v1.561h-1.269v0.635h10.79v-0.635h-1.269v-1.561h3.491v1.561h-0.952v0.635h5.712v-0.635h-0.952v-1.561h3.808v-0.635h-1.587zM6.096 8.292h19.676v2.539h-19.676v-2.539zM15.617 24.477h-6.982v-5.078h6.982v5.078zM11.174 17.813v0.952h-1.904v-0.952c0-0.524 0.428-0.952 0.952-0.952s0.952 0.428 0.952 0.952zM9.269 15.591c0-0.524 0.428-0.952 0.952-0.952s0.952 0.428 0.952 0.952c0 0.524-0.428 0.952-0.952 0.952s-0.952-0.425-0.952-0.952zM14.982 17.813v0.952h-1.904v-0.952c0-0.524 0.428-0.952 0.952-0.952s0.952 0.428 0.952 0.952zM13.078 15.591c0-0.524 0.428-0.952 0.952-0.952s0.952 0.428 0.952 0.952c0 0.524-0.428 0.952-0.952 0.952s-0.952-0.425-0.952-0.952zM22.916 24.477h-2.539v-8.569h2.539v8.569zM22.916 15.591h-2.539v-0.635h2.539v0.635zM25.137 22.281h-1.587v-7.959h-3.808v7.959h-3.491v-3.516h-0.952v-0.952c0-0.482-0.273-0.895-0.666-1.111 0.397-0.216 0.666-0.628 0.666-1.111 0-0.701-0.568-1.269-1.269-1.269s-1.269 0.568-1.269 1.269c0 0.482 0.273 0.895 0.666 1.111-0.397 0.216-0.666 0.628-0.666 1.111v0.952h-1.269v-0.952c0-0.482-0.273-0.895-0.666-1.111 0.397-0.216 0.666-0.628 0.666-1.111 0-0.701-0.568-1.269-1.269-1.269s-1.269 0.568-1.269 1.269c0 0.482 0.273 0.895 0.666 1.111-0.397 0.216-0.666 0.628-0.666 1.111v0.952h-0.952v3.516h-1.269v-10.815h18.407v10.815z"></path>
</symbol>
<symbol id="icon-computer" viewBox="0 0 32 32">
<path fill="#fff" style="fill: var(--color1, #fff)" d="M16.085 0.066c-0.006 0-0.013 0-0.019 0-8.756 0-15.855 7.090-15.868 15.849-0.013 8.762 7.083 15.874 15.849 15.887 0.006 0 0.013 0 0.019 0 8.753 0 15.855-7.090 15.868-15.849 0.013-8.762-7.083-15.874-15.849-15.887zM16.066 31.167h-0.019c-8.4-0.010-15.224-6.852-15.214-15.252 0.010-8.388 6.845-15.214 15.233-15.214h0.019c8.4 0.010 15.224 6.852 15.214 15.252-0.010 8.388-6.845 15.214-15.233 15.214zM24.317 8.343h-18.407v12.694h7.934v1.269h-1.587v0.635h5.712v-0.635h-1.587v-1.269h3.491v3.808h6.347v-9.521h-1.904v-6.982zM15.749 22.306h-1.269v-1.269h1.269v1.269zM19.874 20.402h-13.329v-11.425h17.137v6.347h-3.808v5.078zM25.587 15.959v8.251h-5.078v-8.251h5.078z"></path>
</symbol>
<symbol id="icon-camera" viewBox="0 0 32 32">
<path fill="#fff" style="fill: var(--color1, #fff)" d="M15.934 0.066c-8.762 0-15.868 7.106-15.868 15.868s7.106 15.868 15.868 15.868c8.762 0 15.868-7.106 15.868-15.868s-7.106-15.868-15.868-15.868zM15.934 31.167c-8.4 0-15.233-6.833-15.233-15.233s6.833-15.233 15.233-15.233c8.4 0 15.233 6.833 15.233 15.233s-6.833 15.233-15.233 15.233zM24.661 9.571v-1.571h-2.539v1.193l-0.619-1.234c-0.378-0.758-1.139-1.228-1.987-1.228h-2.723c-0.847 0-1.609 0.47-1.987 1.228l-0.657 1.311h-5.833c-1.225 0-2.221 0.996-2.221 2.221v8.886c0 1.225 0.997 2.221 2.221 2.221h15.233c1.225 0 2.221-0.997 2.221-2.221v-8.886c0-0.819-0.447-1.536-1.111-1.92zM22.757 8.635h1.269v0.689c-0.152-0.035-0.311-0.054-0.476-0.054h-0.793v-0.635zM11.174 21.964h-2.856c-0.876 0-1.587-0.711-1.587-1.587v-8.886c0-0.876 0.711-1.587 1.587-1.587h2.856v12.060zM25.137 20.377c0 0.876-0.711 1.587-1.587 1.587h-12.059v-12.059h3.053l0.831-1.663c0.27-0.54 0.812-0.876 1.419-0.876h2.723c0.606 0 1.149 0.336 1.419 0.876l0.831 1.663h1.784c0.876 0 1.587 0.711 1.587 1.587v8.886zM18.155 9.904c-3.151 0-5.712 2.561-5.712 5.712s2.561 5.712 5.712 5.712c3.151 0 5.712-2.561 5.712-5.712s-2.561-5.712-5.712-5.712zM18.155 20.694c-2.799 0-5.078-2.279-5.078-5.078s2.279-5.078 5.078-5.078c2.799 0 5.078 2.279 5.078 5.078s-2.279 5.078-5.078 5.078zM18.155 11.491c-2.279 0-4.126 1.847-4.126 4.126s1.847 4.126 4.126 4.126c2.279 0 4.126-1.847 4.126-4.126s-1.847-4.126-4.126-4.126zM18.155 19.425c-2.101 0-3.808-1.707-3.808-3.808s1.707-3.808 3.808-3.808c2.101 0 3.808 1.707 3.808 3.808s-1.707 3.808-3.808 3.808zM7.683 12.126c0 0.701 0.568 1.269 1.269 1.269s1.269-0.568 1.269-1.269c0-0.701-0.568-1.269-1.269-1.269s-1.269 0.568-1.269 1.269zM8.952 11.174c0.524 0 0.952 0.428 0.952 0.952s-0.428 0.952-0.952 0.952c-0.524 0-0.952-0.428-0.952-0.952s0.428-0.952 0.952-0.952z"></path>
</symbol>
<symbol id="icon-package" viewBox="0 0 32 32">
<path fill="#fff" style="fill: var(--color1, #fff)" d="M16.066 0.066c-8.762 0-15.868 7.106-15.868 15.868s7.106 15.868 15.868 15.868c8.762 0 15.868-7.106 15.868-15.868s-7.106-15.868-15.868-15.868zM16.066 31.167c-8.4 0-15.233-6.833-15.233-15.233s6.833-15.233 15.233-15.233c8.4 0 15.233 6.833 15.233 15.233s-6.833 15.233-15.233 15.233zM10.036 7.683h0.635v-0.317h-0.635v0.317zM14.479 7.365h-0.635v0.317h0.635v-0.317zM16.383 7.365h-0.635v0.317h0.635v-0.317zM11.941 7.683h0.635v-0.317h-0.635v0.317zM18.288 7.365h-0.635v0.317h0.635v-0.317zM10.036 22.916h0.635v-0.317h-0.635v0.317zM11.941 22.916h0.635v-0.317h-0.635v0.317zM13.845 22.916h0.635v-0.317h-0.635v0.317zM20.798 17.054c0.146-3.386-0.162-7.096-0.924-9.422v-2.171h-12.059v2.171c-1.282 3.91-1.282 11.739 0 15.341v2.164h7.874c0.089 0.225 0.171 0.432 0.244 0.6 0.52 1.212 1.923 1.78 4.418 1.78s3.897-0.565 4.418-1.78c0.476-1.111 1.473-4.129 1.507-4.237l0.029-0.073c0.651-0.438 1.028-0.958 1.028-1.53 0-1.565-2.78-2.755-6.534-2.843zM8.45 24.502v-1.587h0.317v-0.317h-0.406c-1.171-3.523-1.149-11.152 0.073-14.814l0.016-0.051v-0.051h0.317v-0.317h-0.317v-1.269h10.79v1.638l0.016 0.048c0.743 2.228 1.041 5.919 0.898 9.267-3.881 0.041-6.785 1.25-6.785 2.853 0 0.549 0.346 1.050 0.952 1.476l0.171 0.47c0.029 0.082 0.511 1.466 0.955 2.656h-6.998zM24.184 25.489c-0.409 0.952-1.625 1.393-3.834 1.393s-3.427-0.444-3.834-1.393c-0.229-0.536-0.578-1.473-0.873-2.291 0.879 0.46 2.472 0.828 4.706 0.828 2.209 0 3.789-0.359 4.675-0.812-0.295 0.854-0.625 1.774-0.841 2.275zM25.184 22.754c-0.727 0.508-2.459 0.955-4.833 0.955-2.418 0-4.173-0.466-4.875-0.984-0.133-0.371-0.241-0.682-0.311-0.879 1.257 0.565 3.082 0.908 5.186 0.908 2.075 0 3.878-0.336 5.135-0.885-0.082 0.248-0.187 0.552-0.302 0.885zM20.35 22.122c-3.742 0-6.347-1.171-6.347-2.221s2.605-2.221 6.347-2.221c3.742 0 6.347 1.171 6.347 2.221s-2.605 2.221-6.347 2.221z"></path>
</symbol>
<symbol id="icon-blub" viewBox="0 0 32 32">
<path fill="#fff" style="fill: var(--color1, #fff)" d="M15.934 0.066c-8.762 0-15.868 7.106-15.868 15.868s7.106 15.868 15.868 15.868c8.762 0 15.868-7.106 15.868-15.868s-7.106-15.868-15.868-15.868zM15.934 31.167c-8.4 0-15.233-6.833-15.233-15.233s6.833-15.233 15.233-15.233c8.4 0 15.233 6.833 15.233 15.233s-6.833 15.233-15.233 15.233zM24.185 15.299h1.904v-0.317h-1.904v0.317zM7.683 14.982h-1.904v0.317h1.904v-0.317zM24.807 10.199l-0.159-0.276-1.65 0.952 0.159 0.276 1.65-0.952zM7.061 20.082l0.159 0.276 1.65-0.952-0.159-0.276-1.65 0.952zM21.148 6.426l-0.276-0.159-0.952 1.65 0.276 0.159 0.952-1.65zM16.093 4.985h-0.317v1.904h0.317v-1.904zM11.945 7.914l-0.952-1.65-0.276 0.159 0.952 1.65 0.276-0.159zM7.061 10.199l1.65 0.952 0.159-0.276-1.65-0.952-0.159 0.276zM23.001 19.403l1.65 0.952 0.159-0.276-1.65-0.952-0.159 0.276zM15.934 8.317c-3.681 0-6.664 2.983-6.664 6.664 0 2.529 1.415 4.722 3.491 5.849v4.119l1.457 1.457h3.437l1.453-1.457v-4.119c2.075-1.127 3.491-3.32 3.491-5.849 0-3.681-2.983-6.664-6.664-6.664zM17.391 25.772h-2.91l-0.952-0.952h4.814l-0.952 0.952zM18.473 24.502h-5.078v-0.952h5.078v0.952zM18.473 23.233h-5.078v-0.952h5.078v0.952zM18.473 21.964h-5.078v-0.952h5.078v0.952zM14.982 17.045c0 0.27 0.105 0.498 0.308 0.66 0.171 0.136 0.4 0.213 0.644 0.213 0.473 0 0.952-0.298 0.952-0.873 0-0.34-0.27-0.682-0.689-1.025 0.546-0.378 1.254-0.762 1.885-1.104 0.114-0.063 0.229-0.124 0.34-0.184-0.33 1.939-0.73 4.729-0.857 5.643h-3.262c-0.13-0.914-0.527-3.704-0.857-5.643 0.111 0.060 0.225 0.121 0.34 0.184 0.632 0.343 1.339 0.727 1.885 1.104-0.419 0.343-0.689 0.686-0.689 1.025zM15.934 16.213c0.384 0.295 0.635 0.581 0.635 0.831 0 0.384-0.317 0.555-0.635 0.555s-0.635-0.171-0.635-0.555c0-0.251 0.251-0.536 0.635-0.831zM18.606 20.377h-0.724c0.14-0.993 0.565-3.945 0.892-5.839 0.825-0.46 1.466-0.873 1.593-1.25 0.082-0.251 0.079-0.486-0.016-0.682-0.086-0.181-0.241-0.314-0.435-0.378-0.394-0.133-0.924 0.048-1.12 0.641-0.076 0.225-0.184 0.768-0.308 1.463-0.187 0.102-0.374 0.206-0.559 0.305-0.717 0.387-1.444 0.784-1.996 1.181-0.552-0.397-1.282-0.793-1.996-1.181-0.184-0.098-0.374-0.203-0.559-0.305-0.124-0.698-0.232-1.238-0.308-1.463-0.197-0.593-0.724-0.774-1.12-0.641-0.194 0.063-0.349 0.2-0.435 0.378-0.092 0.197-0.098 0.432-0.016 0.682 0.127 0.378 0.765 0.79 1.593 1.25 0.327 1.895 0.752 4.846 0.892 5.839h-0.724c-1.987-0.987-3.358-3.031-3.358-5.395 0-3.326 2.704-6.030 6.030-6.030s6.030 2.704 6.030 6.030c0 2.364-1.371 4.408-3.358 5.395zM18.85 14.131c0.102-0.555 0.187-0.977 0.251-1.162 0.108-0.324 0.34-0.466 0.562-0.466 0.054 0 0.108 0.010 0.159 0.025 0.111 0.038 0.2 0.114 0.248 0.216 0.057 0.121 0.057 0.273 0 0.444-0.082 0.241-0.6 0.587-1.219 0.943zM13.017 14.131c-0.619-0.355-1.136-0.701-1.219-0.946-0.057-0.171-0.057-0.324 0-0.444 0.048-0.102 0.136-0.178 0.248-0.216 0.051-0.016 0.105-0.025 0.159-0.025 0.219 0 0.454 0.143 0.562 0.466 0.063 0.19 0.152 0.609 0.251 1.165z"></path>
</symbol>
<symbol id="icon-clock" viewBox="0 0 32 32">
<path fill="#fff" style="fill: var(--color1, #fff)" d="M16.066 0.066c-8.762 0-15.868 7.106-15.868 15.868s7.106 15.868 15.868 15.868c8.762 0 15.868-7.106 15.868-15.868s-7.106-15.868-15.868-15.868zM16.066 31.167c-8.4 0-15.233-6.833-15.233-15.233s6.833-15.233 15.233-15.233c8.4 0 15.233 6.833 15.233 15.233s-6.833 15.233-15.233 15.233zM11.941 23.55c-1.403 0-2.539 1.136-2.539 2.539s1.136 2.539 2.539 2.539c1.403 0 2.539-1.136 2.539-2.539s-1.136-2.539-2.539-2.539zM11.941 27.993c-1.050 0-1.904-0.854-1.904-1.904s0.854-1.904 1.904-1.904c1.050 0 1.904 0.854 1.904 1.904s-0.854 1.904-1.904 1.904zM7.469 15.14l2.314-2.314-0.447-0.447-2.314 2.314-2.314-2.314-0.447 0.447 2.314 2.314-2.314 2.314 0.447 0.447 2.314-2.314 2.314 2.314 0.447-0.447-2.314-2.314zM13.594 9.336l2.314-2.314 2.314 2.314 0.447-0.447-2.314-2.314 2.314-2.314-0.447-0.447-2.314 2.314-2.314-2.314-0.447 0.447 2.314 2.314-2.314 2.314 0.447 0.447zM24.885 19.358l-2.314 2.314-2.314-2.314-0.447 0.447 2.314 2.314-2.314 2.314 0.447 0.447 2.314-2.314 2.314 2.314 0.447-0.447-2.314-2.314 2.314-2.314-0.447-0.447zM23.368 8.381l0.394 2.425c-2.92 0.365-5.189 1.59-6.63 2.615-0.451-0.409-1.044-0.66-1.701-0.66-1.403 0-2.539 1.136-2.539 2.539s1.136 2.539 2.539 2.539c1.403 0 2.539-1.136 2.539-2.539 0-0.511-0.152-0.987-0.413-1.387 1.39-0.974 3.564-2.136 6.309-2.479l0.384 2.374 4.259-3.475-5.141-1.952zM15.431 17.203c-1.050 0-1.904-0.854-1.904-1.904s0.854-1.904 1.904-1.904c1.050 0 1.904 0.854 1.904 1.904s-0.854 1.904-1.904 1.904zM24.171 9.365l3.085 1.171-2.555 2.085-0.53-3.256zM12.417 21.884l-0.622-0.124c-0.044 0.216-0.082 0.441-0.117 0.666l0.628 0.092c0.035-0.216 0.070-0.428 0.111-0.635zM12.947 20.025l-0.593-0.222c-0.076 0.206-0.152 0.422-0.219 0.641l0.606 0.19c0.063-0.209 0.133-0.413 0.206-0.609zM13.765 18.273l-0.552-0.314c-0.108 0.19-0.216 0.39-0.321 0.6l0.568 0.286c0.098-0.2 0.203-0.39 0.305-0.571z"></path>
</symbol>
<symbol id="icon-facebook-with-circle" viewBox="0 0 20 20">
<path d="M10 0.4c-5.302 0-9.6 4.298-9.6 9.6s4.298 9.6 9.6 9.6 9.6-4.298 9.6-9.6-4.298-9.6-9.6-9.6zM12.274 7.034h-1.443c-0.171 0-0.361 0.225-0.361 0.524v1.042h1.805l-0.273 1.486h-1.532v4.461h-1.703v-4.461h-1.545v-1.486h1.545v-0.874c0-1.254 0.87-2.273 2.064-2.273h1.443v1.581z"></path>
</symbol>
<symbol id="icon-instagram" viewBox="0 0 32 32">
<path  d="M16 2.881c4.275 0 4.781 0.019 6.462 0.094 1.563 0.069 2.406 0.331 2.969 0.55 0.744 0.288 1.281 0.638 1.837 1.194 0.563 0.563 0.906 1.094 1.2 1.838 0.219 0.563 0.481 1.412 0.55 2.969 0.075 1.688 0.094 2.194 0.094 6.463s-0.019 4.781-0.094 6.463c-0.069 1.563-0.331 2.406-0.55 2.969-0.288 0.744-0.637 1.281-1.194 1.837-0.563 0.563-1.094 0.906-1.837 1.2-0.563 0.219-1.413 0.481-2.969 0.55-1.688 0.075-2.194 0.094-6.463 0.094s-4.781-0.019-6.463-0.094c-1.563-0.069-2.406-0.331-2.969-0.55-0.744-0.288-1.281-0.637-1.838-1.194-0.563-0.563-0.906-1.094-1.2-1.837-0.219-0.563-0.481-1.413-0.55-2.969-0.075-1.688-0.094-2.194-0.094-6.463s0.019-4.781 0.094-6.463c0.069-1.563 0.331-2.406 0.55-2.969 0.288-0.744 0.638-1.281 1.194-1.838 0.563-0.563 1.094-0.906 1.838-1.2 0.563-0.219 1.412-0.481 2.969-0.55 1.681-0.075 2.188-0.094 6.463-0.094zM16 0c-4.344 0-4.887 0.019-6.594 0.094-1.7 0.075-2.869 0.35-3.881 0.744-1.056 0.412-1.95 0.956-2.837 1.85-0.894 0.888-1.438 1.781-1.85 2.831-0.394 1.019-0.669 2.181-0.744 3.881-0.075 1.713-0.094 2.256-0.094 6.6s0.019 4.887 0.094 6.594c0.075 1.7 0.35 2.869 0.744 3.881 0.413 1.056 0.956 1.95 1.85 2.837 0.887 0.887 1.781 1.438 2.831 1.844 1.019 0.394 2.181 0.669 3.881 0.744 1.706 0.075 2.25 0.094 6.594 0.094s4.888-0.019 6.594-0.094c1.7-0.075 2.869-0.35 3.881-0.744 1.050-0.406 1.944-0.956 2.831-1.844s1.438-1.781 1.844-2.831c0.394-1.019 0.669-2.181 0.744-3.881 0.075-1.706 0.094-2.25 0.094-6.594s-0.019-4.887-0.094-6.594c-0.075-1.7-0.35-2.869-0.744-3.881-0.394-1.063-0.938-1.956-1.831-2.844-0.887-0.887-1.781-1.438-2.831-1.844-1.019-0.394-2.181-0.669-3.881-0.744-1.712-0.081-2.256-0.1-6.6-0.1v0z"></path>
<path d="M16 7.781c-4.537 0-8.219 3.681-8.219 8.219s3.681 8.219 8.219 8.219 8.219-3.681 8.219-8.219c0-4.537-3.681-8.219-8.219-8.219zM16 21.331c-2.944 0-5.331-2.387-5.331-5.331s2.387-5.331 5.331-5.331c2.944 0 5.331 2.387 5.331 5.331s-2.387 5.331-5.331 5.331z"></path>
<path d="M26.462 7.456c0 1.060-0.859 1.919-1.919 1.919s-1.919-0.859-1.919-1.919c0-1.060 0.859-1.919 1.919-1.919s1.919 0.859 1.919 1.919z"></path>
</symbol>
<symbol id="icon-twitter" viewBox="0 0 32 32">
<path d="M32 7.075c-1.175 0.525-2.444 0.875-3.769 1.031 1.356-0.813 2.394-2.1 2.887-3.631-1.269 0.75-2.675 1.3-4.169 1.594-1.2-1.275-2.906-2.069-4.794-2.069-3.625 0-6.563 2.938-6.563 6.563 0 0.512 0.056 1.012 0.169 1.494-5.456-0.275-10.294-2.888-13.531-6.862-0.563 0.969-0.887 2.1-0.887 3.3 0 2.275 1.156 4.287 2.919 5.463-1.075-0.031-2.087-0.331-2.975-0.819 0 0.025 0 0.056 0 0.081 0 3.181 2.263 5.838 5.269 6.437-0.55 0.15-1.131 0.231-1.731 0.231-0.425 0-0.831-0.044-1.237-0.119 0.838 2.606 3.263 4.506 6.131 4.563-2.25 1.762-5.075 2.813-8.156 2.813-0.531 0-1.050-0.031-1.569-0.094 2.913 1.869 6.362 2.95 10.069 2.95 12.075 0 18.681-10.006 18.681-18.681 0-0.287-0.006-0.569-0.019-0.85 1.281-0.919 2.394-2.075 3.275-3.394z"></path>
</symbol>
</defs>
</svg>
