<!-- Generated by IcoMoon.io -->
<svg version="1.1" xmlns="http://www.w3.org/2000/svg" width="32" height="32" viewBox="0 0 32 32">
<path fill="#fff" d="M15.934 0.066c-8.762 0-15.868 7.106-15.868 15.868s7.106 15.868 15.868 15.868c8.762 0 15.868-7.106 15.868-15.868s-7.106-15.868-15.868-15.868zM15.934 31.167c-8.4 0-15.233-6.833-15.233-15.233s6.833-15.233 15.233-15.233c8.4 0 15.233 6.833 15.233 15.233s-6.833 15.233-15.233 15.233zM24.185 15.299h1.904v-0.317h-1.904v0.317zM7.683 14.982h-1.904v0.317h1.904v-0.317zM24.807 10.199l-0.159-0.276-1.65 0.952 0.159 0.276 1.65-0.952zM7.061 20.082l0.159 0.276 1.65-0.952-0.159-0.276-1.65 0.952zM21.148 6.426l-0.276-0.159-0.952 1.65 0.276 0.159 0.952-1.65zM16.093 4.985h-0.317v1.904h0.317v-1.904zM11.945 7.914l-0.952-1.65-0.276 0.159 0.952 1.65 0.276-0.159zM7.061 10.199l1.65 0.952 0.159-0.276-1.65-0.952-0.159 0.276zM23.001 19.403l1.65 0.952 0.159-0.276-1.65-0.952-0.159 0.276zM15.934 8.317c-3.681 0-6.664 2.983-6.664 6.664 0 2.529 1.415 4.722 3.491 5.849v4.119l1.457 1.457h3.437l1.453-1.457v-4.119c2.075-1.127 3.491-3.32 3.491-5.849 0-3.681-2.983-6.664-6.664-6.664zM17.391 25.772h-2.91l-0.952-0.952h4.814l-0.952 0.952zM18.473 24.502h-5.078v-0.952h5.078v0.952zM18.473 23.233h-5.078v-0.952h5.078v0.952zM18.473 21.964h-5.078v-0.952h5.078v0.952zM14.982 17.045c0 0.27 0.105 0.498 0.308 0.66 0.171 0.136 0.4 0.213 0.644 0.213 0.473 0 0.952-0.298 0.952-0.873 0-0.34-0.27-0.682-0.689-1.025 0.546-0.378 1.254-0.762 1.885-1.104 0.114-0.063 0.229-0.124 0.34-0.184-0.33 1.939-0.73 4.729-0.857 5.643h-3.262c-0.13-0.914-0.527-3.704-0.857-5.643 0.111 0.060 0.225 0.121 0.34 0.184 0.632 0.343 1.339 0.727 1.885 1.104-0.419 0.343-0.689 0.686-0.689 1.025zM15.934 16.213c0.384 0.295 0.635 0.581 0.635 0.831 0 0.384-0.317 0.555-0.635 0.555s-0.635-0.171-0.635-0.555c0-0.251 0.251-0.536 0.635-0.831zM18.606 20.377h-0.724c0.14-0.993 0.565-3.945 0.892-5.839 0.825-0.46 1.466-0.873 1.593-1.25 0.082-0.251 0.079-0.486-0.016-0.682-0.086-0.181-0.241-0.314-0.435-0.378-0.394-0.133-0.924 0.048-1.12 0.641-0.076 0.225-0.184 0.768-0.308 1.463-0.187 0.102-0.374 0.206-0.559 0.305-0.717 0.387-1.444 0.784-1.996 1.181-0.552-0.397-1.282-0.793-1.996-1.181-0.184-0.098-0.374-0.203-0.559-0.305-0.124-0.698-0.232-1.238-0.308-1.463-0.197-0.593-0.724-0.774-1.12-0.641-0.194 0.063-0.349 0.2-0.435 0.378-0.092 0.197-0.098 0.432-0.016 0.682 0.127 0.378 0.765 0.79 1.593 1.25 0.327 1.895 0.752 4.846 0.892 5.839h-0.724c-1.987-0.987-3.358-3.031-3.358-5.395 0-3.326 2.704-6.030 6.030-6.030s6.030 2.704 6.030 6.030c0 2.364-1.371 4.408-3.358 5.395zM18.85 14.131c0.102-0.555 0.187-0.977 0.251-1.162 0.108-0.324 0.34-0.466 0.562-0.466 0.054 0 0.108 0.010 0.159 0.025 0.111 0.038 0.2 0.114 0.248 0.216 0.057 0.121 0.057 0.273 0 0.444-0.082 0.241-0.6 0.587-1.219 0.943zM13.017 14.131c-0.619-0.355-1.136-0.701-1.219-0.946-0.057-0.171-0.057-0.324 0-0.444 0.048-0.102 0.136-0.178 0.248-0.216 0.051-0.016 0.105-0.025 0.159-0.025 0.219 0 0.454 0.143 0.562 0.466 0.063 0.19 0.152 0.609 0.251 1.165z"></path>
</svg>
