<!-- Generated by IcoMoon.io -->
<svg version="1.1" xmlns="http://www.w3.org/2000/svg" width="32" height="32" viewBox="0 0 32 32">
<path fill="#fff" d="M25.031 12.208l-2.936 2.939v-9.051h-13.964v19.676h13.964v-5.24l5.63-5.63-2.694-2.694zM21.461 25.137h-12.694v-18.407h12.694v9.051l-2.691 2.691h-8.099v0.317h7.782l-1.587 1.587h-6.195v0.317h5.966l-0.365 1.587h-5.601v0.317h5.528l-0.343 1.479 3.5-0.806 2.104-2.104v3.97zM17.177 21.183l1.574 1.574-2.047 0.473 0.473-2.047zM19.084 22.643l-1.796-1.796 6.395-6.395 1.123 1.123-6.395 6.395 0.225 0.225 6.395-6.395 0.447 0.447-6.395 6.395zM23.911 14.23l1.123-1.123 1.796 1.796-1.123 1.123-1.796-1.796zM16.066 0.066c-8.762 0-15.868 7.106-15.868 15.868s7.106 15.868 15.868 15.868c8.762 0 15.868-7.106 15.868-15.868s-7.106-15.868-15.868-15.868zM16.066 31.167c-8.4 0-15.233-6.833-15.233-15.233s6.833-15.233 15.233-15.233c8.4 0 15.233 6.833 15.233 15.233s-6.833 15.233-15.233 15.233zM19.557 16.569h-8.886v0.317h8.886v-0.317zM16.383 8.635h-5.712v5.712h5.712v-5.712zM16.066 14.030h-5.078v-5.078h5.078v5.078z"></path>
</svg>
