<!-- Generated by IcoMoon.io -->
<svg version="1.1" xmlns="http://www.w3.org/2000/svg" width="32" height="32" viewBox="0 0 32 32">
<path fill="#fff" d="M15.934 0.066c-8.762 0-15.868 7.106-15.868 15.868s7.106 15.868 15.868 15.868c8.762 0 15.868-7.106 15.868-15.868s-7.106-15.868-15.868-15.868zM15.934 31.167c-8.4 0-15.233-6.833-15.233-15.233s6.833-15.233 15.233-15.233c8.4 0 15.233 6.833 15.233 15.233s-6.833 15.233-15.233 15.233zM24.661 9.571v-1.571h-2.539v1.193l-0.619-1.234c-0.378-0.758-1.139-1.228-1.987-1.228h-2.723c-0.847 0-1.609 0.47-1.987 1.228l-0.657 1.311h-5.833c-1.225 0-2.221 0.996-2.221 2.221v8.886c0 1.225 0.997 2.221 2.221 2.221h15.233c1.225 0 2.221-0.997 2.221-2.221v-8.886c0-0.819-0.447-1.536-1.111-1.92zM22.757 8.635h1.269v0.689c-0.152-0.035-0.311-0.054-0.476-0.054h-0.793v-0.635zM11.174 21.964h-2.856c-0.876 0-1.587-0.711-1.587-1.587v-8.886c0-0.876 0.711-1.587 1.587-1.587h2.856v12.060zM25.137 20.377c0 0.876-0.711 1.587-1.587 1.587h-12.059v-12.059h3.053l0.831-1.663c0.27-0.54 0.812-0.876 1.419-0.876h2.723c0.606 0 1.149 0.336 1.419 0.876l0.831 1.663h1.784c0.876 0 1.587 0.711 1.587 1.587v8.886zM18.155 9.904c-3.151 0-5.712 2.561-5.712 5.712s2.561 5.712 5.712 5.712c3.151 0 5.712-2.561 5.712-5.712s-2.561-5.712-5.712-5.712zM18.155 20.694c-2.799 0-5.078-2.279-5.078-5.078s2.279-5.078 5.078-5.078c2.799 0 5.078 2.279 5.078 5.078s-2.279 5.078-5.078 5.078zM18.155 11.491c-2.279 0-4.126 1.847-4.126 4.126s1.847 4.126 4.126 4.126c2.279 0 4.126-1.847 4.126-4.126s-1.847-4.126-4.126-4.126zM18.155 19.425c-2.101 0-3.808-1.707-3.808-3.808s1.707-3.808 3.808-3.808c2.101 0 3.808 1.707 3.808 3.808s-1.707 3.808-3.808 3.808zM7.683 12.126c0 0.701 0.568 1.269 1.269 1.269s1.269-0.568 1.269-1.269c0-0.701-0.568-1.269-1.269-1.269s-1.269 0.568-1.269 1.269zM8.952 11.174c0.524 0 0.952 0.428 0.952 0.952s-0.428 0.952-0.952 0.952c-0.524 0-0.952-0.428-0.952-0.952s0.428-0.952 0.952-0.952z"></path>
</svg>
