<!-- Generated by IcoMoon.io -->
<svg version="1.1" xmlns="http://www.w3.org/2000/svg" width="32" height="32" viewBox="0 0 32 32">
<path fill="#fff" d="M15.934 0.066c-8.762 0-15.868 7.106-15.868 15.868s7.106 15.868 15.868 15.868c8.762 0 15.868-7.106 15.868-15.868s-7.106-15.868-15.868-15.868zM15.934 31.167c-8.4 0-15.233-6.833-15.233-15.233s6.833-15.233 15.233-15.233c8.4 0 15.233 6.833 15.233 15.233s-6.833 15.233-15.233 15.233zM9.587 10.539c-1.228 0-2.221 0.993-2.221 2.222s0.993 2.221 2.221 2.221c1.228 0 2.222-0.993 2.222-2.221s-0.993-2.221-2.221-2.221zM9.587 14.664c-1.050 0-1.904-0.854-1.904-1.904s0.854-1.904 1.904-1.904c1.050 0 1.904 0.854 1.904 1.904s-0.854 1.904-1.904 1.904zM18.155 11.015h-5.078v0.317h5.078v-0.317zM18.155 12.602h-5.078v0.317h5.078v-0.317zM25.137 13.712h-4.76v-3.808c0-0.876-0.711-1.587-1.587-1.587h-11.425c-0.876 0-1.587 0.711-1.587 1.587v5.712c0 0.876 0.711 1.587 1.587 1.587h0.317v2.602l2.977-2.602h1.466v3.808c0 0.876 0.711 1.587 1.587 1.587h8.131l2.977 2.602v-2.602h0.317c0.876 0 1.587-0.711 1.587-1.587v-5.712c0-0.876-0.711-1.587-1.587-1.587zM12.126 15.299v1.269h-1.707l-2.101 1.841v-1.841h-0.952c-0.524 0-0.952-0.428-0.952-0.952v-5.712c0-0.524 0.428-0.952 0.952-0.952h11.425c0.524 0 0.952 0.428 0.952 0.952v3.808h-6.030c-0.876 0-1.587 0.711-1.587 1.587zM26.089 21.012c0 0.524-0.428 0.952-0.952 0.952h-0.952v1.841l-2.101-1.841h-8.372c-0.524 0-0.952-0.428-0.952-0.952v-5.712c0-0.524 0.428-0.952 0.952-0.952h11.425c0.524 0 0.952 0.428 0.952 0.952v5.712zM22.916 15.934c-1.228 0-2.221 0.993-2.221 2.221s0.993 2.221 2.221 2.221c1.228 0 2.221-0.993 2.221-2.221s-0.993-2.221-2.221-2.221zM22.916 20.059c-1.050 0-1.904-0.854-1.904-1.904s0.854-1.904 1.904-1.904c1.050 0 1.904 0.854 1.904 1.904s-0.854 1.904-1.904 1.904zM14.347 16.727h5.078v-0.317h-5.078v0.317zM14.347 18.314h5.078v-0.317h-5.078v0.317zM14.347 19.901h3.174v-0.317h-3.174v0.317z"></path>
</svg>
