<!-- Generated by IcoMoon.io -->
<svg version="1.1" xmlns="http://www.w3.org/2000/svg" width="32" height="32" viewBox="0 0 32 32">
<path fill="#fff" d="M16.066 0.066c-8.762 0-15.868 7.106-15.868 15.868s7.106 15.868 15.868 15.868c8.762 0 15.868-7.106 15.868-15.868s-7.106-15.868-15.868-15.868zM16.066 31.167c-8.4 0-15.233-6.833-15.233-15.233s6.833-15.233 15.233-15.233c8.4 0 15.233 6.833 15.233 15.233s-6.833 15.233-15.233 15.233zM11.941 23.55c-1.403 0-2.539 1.136-2.539 2.539s1.136 2.539 2.539 2.539c1.403 0 2.539-1.136 2.539-2.539s-1.136-2.539-2.539-2.539zM11.941 27.993c-1.050 0-1.904-0.854-1.904-1.904s0.854-1.904 1.904-1.904c1.050 0 1.904 0.854 1.904 1.904s-0.854 1.904-1.904 1.904zM7.469 15.14l2.314-2.314-0.447-0.447-2.314 2.314-2.314-2.314-0.447 0.447 2.314 2.314-2.314 2.314 0.447 0.447 2.314-2.314 2.314 2.314 0.447-0.447-2.314-2.314zM13.594 9.336l2.314-2.314 2.314 2.314 0.447-0.447-2.314-2.314 2.314-2.314-0.447-0.447-2.314 2.314-2.314-2.314-0.447 0.447 2.314 2.314-2.314 2.314 0.447 0.447zM24.885 19.358l-2.314 2.314-2.314-2.314-0.447 0.447 2.314 2.314-2.314 2.314 0.447 0.447 2.314-2.314 2.314 2.314 0.447-0.447-2.314-2.314 2.314-2.314-0.447-0.447zM23.368 8.381l0.394 2.425c-2.92 0.365-5.189 1.59-6.63 2.615-0.451-0.409-1.044-0.66-1.701-0.66-1.403 0-2.539 1.136-2.539 2.539s1.136 2.539 2.539 2.539c1.403 0 2.539-1.136 2.539-2.539 0-0.511-0.152-0.987-0.413-1.387 1.39-0.974 3.564-2.136 6.309-2.479l0.384 2.374 4.259-3.475-5.141-1.952zM15.431 17.203c-1.050 0-1.904-0.854-1.904-1.904s0.854-1.904 1.904-1.904c1.050 0 1.904 0.854 1.904 1.904s-0.854 1.904-1.904 1.904zM24.171 9.365l3.085 1.171-2.555 2.085-0.53-3.256zM12.417 21.884l-0.622-0.124c-0.044 0.216-0.082 0.441-0.117 0.666l0.628 0.092c0.035-0.216 0.070-0.428 0.111-0.635zM12.947 20.025l-0.593-0.222c-0.076 0.206-0.152 0.422-0.219 0.641l0.606 0.19c0.063-0.209 0.133-0.413 0.206-0.609zM13.765 18.273l-0.552-0.314c-0.108 0.19-0.216 0.39-0.321 0.6l0.568 0.286c0.098-0.2 0.203-0.39 0.305-0.571z"></path>
</svg>
