<!-- Generated by IcoMoon.io -->
<svg version="1.1" xmlns="http://www.w3.org/2000/svg" width="32" height="32" viewBox="0 0 32 32">
<path fill="#fff" d="M16.085 0.066c-0.006 0-0.013 0-0.019 0-8.756 0-15.855 7.090-15.868 15.849-0.013 8.762 7.083 15.874 15.849 15.887 0.006 0 0.013 0 0.019 0 8.753 0 15.855-7.090 15.868-15.849 0.013-8.762-7.083-15.874-15.849-15.887zM16.066 31.167h-0.019c-8.4-0.010-15.224-6.852-15.214-15.252 0.010-8.388 6.845-15.214 15.233-15.214h0.019c8.4 0.010 15.224 6.852 15.214 15.252-0.010 8.388-6.845 15.214-15.233 15.214zM24.317 8.343h-18.407v12.694h7.934v1.269h-1.587v0.635h5.712v-0.635h-1.587v-1.269h3.491v3.808h6.347v-9.521h-1.904v-6.982zM15.749 22.306h-1.269v-1.269h1.269v1.269zM19.874 20.402h-13.329v-11.425h17.137v6.347h-3.808v5.078zM25.587 15.959v8.251h-5.078v-8.251h5.078z"></path>
</svg>
