<!-- Generated by IcoMoon.io -->
<svg version="1.1" xmlns="http://www.w3.org/2000/svg" width="32" height="32" viewBox="0 0 32 32">
<path fill="#fff" d="M16.066 0.066c-8.762 0-15.868 7.106-15.868 15.868s7.106 15.868 15.868 15.868c8.762 0 15.868-7.106 15.868-15.868s-7.106-15.868-15.868-15.868zM16.066 31.167c-8.4 0-15.233-6.833-15.233-15.233s6.833-15.233 15.233-15.233c8.4 0 15.233 6.833 15.233 15.233s-6.833 15.233-15.233 15.233zM10.036 7.683h0.635v-0.317h-0.635v0.317zM14.479 7.365h-0.635v0.317h0.635v-0.317zM16.383 7.365h-0.635v0.317h0.635v-0.317zM11.941 7.683h0.635v-0.317h-0.635v0.317zM18.288 7.365h-0.635v0.317h0.635v-0.317zM10.036 22.916h0.635v-0.317h-0.635v0.317zM11.941 22.916h0.635v-0.317h-0.635v0.317zM13.845 22.916h0.635v-0.317h-0.635v0.317zM20.798 17.054c0.146-3.386-0.162-7.096-0.924-9.422v-2.171h-12.059v2.171c-1.282 3.91-1.282 11.739 0 15.341v2.164h7.874c0.089 0.225 0.171 0.432 0.244 0.6 0.52 1.212 1.923 1.78 4.418 1.78s3.897-0.565 4.418-1.78c0.476-1.111 1.473-4.129 1.507-4.237l0.029-0.073c0.651-0.438 1.028-0.958 1.028-1.53 0-1.565-2.78-2.755-6.534-2.843zM8.45 24.502v-1.587h0.317v-0.317h-0.406c-1.171-3.523-1.149-11.152 0.073-14.814l0.016-0.051v-0.051h0.317v-0.317h-0.317v-1.269h10.79v1.638l0.016 0.048c0.743 2.228 1.041 5.919 0.898 9.267-3.881 0.041-6.785 1.25-6.785 2.853 0 0.549 0.346 1.050 0.952 1.476l0.171 0.47c0.029 0.082 0.511 1.466 0.955 2.656h-6.998zM24.184 25.489c-0.409 0.952-1.625 1.393-3.834 1.393s-3.427-0.444-3.834-1.393c-0.229-0.536-0.578-1.473-0.873-2.291 0.879 0.46 2.472 0.828 4.706 0.828 2.209 0 3.789-0.359 4.675-0.812-0.295 0.854-0.625 1.774-0.841 2.275zM25.184 22.754c-0.727 0.508-2.459 0.955-4.833 0.955-2.418 0-4.173-0.466-4.875-0.984-0.133-0.371-0.241-0.682-0.311-0.879 1.257 0.565 3.082 0.908 5.186 0.908 2.075 0 3.878-0.336 5.135-0.885-0.082 0.248-0.187 0.552-0.302 0.885zM20.35 22.122c-3.742 0-6.347-1.171-6.347-2.221s2.605-2.221 6.347-2.221c3.742 0 6.347 1.171 6.347 2.221s-2.605 2.221-6.347 2.221z"></path>
</svg>
