<!-- Generated by IcoMoon.io -->
<svg version="1.1" xmlns="http://www.w3.org/2000/svg" width="32" height="32" viewBox="0 0 32 32">
<path fill="#fff" d="M15.953 0.066c-0.006 0-0.013 0-0.019 0-8.756 0-15.855 7.090-15.868 15.849-0.013 8.762 7.083 15.874 15.849 15.887 0.006 0 0.013 0 0.019 0 8.753 0 15.855-7.090 15.868-15.849 0.013-8.762-7.083-15.874-15.849-15.887zM15.934 31.167h-0.019c-8.4-0.010-15.224-6.852-15.214-15.252 0.010-8.388 6.845-15.214 15.233-15.214h0.019c8.4 0.010 15.224 6.852 15.214 15.252-0.010 8.388-6.845 15.214-15.233 15.214zM25.772 22.281v-10.815h0.635v-3.808h-20.945v3.808h0.635v10.815h-1.587v0.635h3.491v1.561h-1.269v0.635h10.79v-0.635h-1.269v-1.561h3.491v1.561h-0.952v0.635h5.712v-0.635h-0.952v-1.561h3.808v-0.635h-1.587zM6.096 8.292h19.676v2.539h-19.676v-2.539zM15.617 24.477h-6.982v-5.078h6.982v5.078zM11.174 17.813v0.952h-1.904v-0.952c0-0.524 0.428-0.952 0.952-0.952s0.952 0.428 0.952 0.952zM9.269 15.591c0-0.524 0.428-0.952 0.952-0.952s0.952 0.428 0.952 0.952c0 0.524-0.428 0.952-0.952 0.952s-0.952-0.425-0.952-0.952zM14.982 17.813v0.952h-1.904v-0.952c0-0.524 0.428-0.952 0.952-0.952s0.952 0.428 0.952 0.952zM13.078 15.591c0-0.524 0.428-0.952 0.952-0.952s0.952 0.428 0.952 0.952c0 0.524-0.428 0.952-0.952 0.952s-0.952-0.425-0.952-0.952zM22.916 24.477h-2.539v-8.569h2.539v8.569zM22.916 15.591h-2.539v-0.635h2.539v0.635zM25.137 22.281h-1.587v-7.959h-3.808v7.959h-3.491v-3.516h-0.952v-0.952c0-0.482-0.273-0.895-0.666-1.111 0.397-0.216 0.666-0.628 0.666-1.111 0-0.701-0.568-1.269-1.269-1.269s-1.269 0.568-1.269 1.269c0 0.482 0.273 0.895 0.666 1.111-0.397 0.216-0.666 0.628-0.666 1.111v0.952h-1.269v-0.952c0-0.482-0.273-0.895-0.666-1.111 0.397-0.216 0.666-0.628 0.666-1.111 0-0.701-0.568-1.269-1.269-1.269s-1.269 0.568-1.269 1.269c0 0.482 0.273 0.895 0.666 1.111-0.397 0.216-0.666 0.628-0.666 1.111v0.952h-0.952v3.516h-1.269v-10.815h18.407v10.815z"></path>
</svg>
